<svg width="65px" height="50px" viewBox="0 0 65 50" version="1.1" xmlns="http://www.w3.org/2000/svg" xmlns:xlink="http://www.w3.org/1999/xlink">
    <title>logo</title>
    <desc>Created with Sketch.</desc>
    <defs></defs>
    <g id="Page-1" stroke="none" stroke-width="1" fill="none" fill-rule="evenodd">
        <g id="logo" fill-rule="nonzero">
            <g id="Group" transform="translate(0.627615, 44.769874)" fill="#333333">
                <polygon id="Shape" points="1.25523013 5.10460251 0.125523013 5.10460251 0.125523013 0.146443515 1.25523013 0.146443515 3.24267782 3.24267782 3.24267782 3.24267782 3.24267782 0.146443515 4.37238494 0.146443515 4.37238494 5.10460251 3.24267782 5.10460251 1.25523013 2.0083682 1.25523013 2.0083682"></polygon>
                <polygon id="Shape" points="13.0753138 1.10878661 11.3598326 1.10878661 11.3598326 2.07112971 12.9916318 2.07112971 12.9916318 3.07531381 11.3598326 3.07531381 11.3598326 4.07949791 13.0753138 4.07949791 13.0753138 5.08368201 10.2301255 5.08368201 10.2301255 0.125523013 13.0753138 0.125523013"></polygon>
                <polygon id="Shape" points="18.5146444 0.125523013 22.0083682 0.125523013 22.0083682 1.12970711 20.8368201 1.12970711 20.8368201 5.08368201 19.707113 5.08368201 19.707113 1.12970711 18.5355649 1.12970711"></polygon>
                <polygon id="Shape" points="30.5857741 2.32217573 29.790795 5.10460251 28.5355649 5.10460251 27.1338912 0.146443515 28.3682008 0.146443515 29.2050209 3.57740586 29.2259414 3.57740586 30.125523 0.146443515 30.9623431 0.146443515 31.8619247 3.57740586 31.9456067 3.57740586 32.7824268 0.146443515 34.0376569 0.146443515 32.6359833 5.10460251 31.3807531 5.10460251"></polygon>
                <path d="M41.5271967,0.0418410042 C42.9079498,0.0418410042 44.0376569,1.17154812 44.0376569,2.59414226 C44.0376569,4.05857741 42.9707113,5.16736402 41.5271967,5.16736402 C40.041841,5.16736402 39.0167364,4.0376569 39.0167364,2.59414226 C39.0167364,1.15062762 40.1464435,0.0418410042 41.5271967,0.0418410042 Z M41.5271967,4.07949791 C42.4267782,4.07949791 42.8033473,3.34728033 42.8033473,2.59414226 C42.8033473,1.88284519 42.3849372,1.10878661 41.5271967,1.10878661 C40.6485356,1.10878661 40.251046,1.84100418 40.251046,2.59414226 C40.251046,3.34728033 40.6066946,4.07949791 41.5271967,4.07949791 Z" id="Shape"></path>
                <path d="M51.4225941,0.125523013 C52.3430962,0.125523013 53.0543933,0.627615063 53.0543933,1.61087866 C53.0543933,2.34309623 52.6359833,2.86610879 52.0292887,3.0334728 L53.7447699,5.10460251 L52.3221757,5.10460251 L50.8158996,3.13807531 L50.8158996,5.10460251 L49.6861925,5.10460251 L49.6861925,0.146443515 L51.4225941,0.125523013 Z M50.8995816,2.34309623 C51.3389121,2.34309623 51.8200837,2.32217573 51.8200837,1.67364017 C51.8200837,1.0251046 51.3179916,1.0041841 50.8995816,1.0041841 L50.7740586,1.0041841 L50.7740586,2.30125523 L50.8995816,2.30125523 L50.8995816,2.34309623 Z" id="Shape"></path>
                <polygon id="Shape" points="62.0292887 5.10460251 60.1882845 2.9916318 60.1882845 5.10460251 59.0585774 5.10460251 59.0585774 0.146443515 60.1882845 0.146443515 60.1882845 2.19665272 61.9037657 0.146443515 63.2845188 0.146443515 61.2552301 2.48953975 63.5564854 5.10460251"></polygon>
            </g>
            <path d="M58.5983264,23.1380753 C58.7447699,24.9372385 58.1799163,26.6317992 57.0292887,27.9288703 C55.7949791,29.3096234 53.9539749,30.0627615 51.8828452,30.0627615 L7.05020921,30.0627615 C7.0292887,30.0627615 7.0083682,30.0627615 6.9874477,30.0627615 L6.9665272,30.0627615 L6.92468619,30.0627615 C5.10460251,30.041841 3.38912134,29.3305439 2.11297071,28.0543933 C0.753138075,26.7154812 0.0209205021,24.916318 2.27373675e-13,23.0125523 C2.27373675e-13,19.4769874 2.40585774,16.6108787 5.69037657,16.0669456 C6.12970711,13.1171548 8.70292887,10.7112971 11.8828452,10.209205 C12.0711297,9.0376569 12.6359833,7.90794979 13.5355649,6.9874477 C14.832636,5.64853556 16.5899582,4.89539749 18.3891213,4.89539749 C20.7112971,4.89539749 22.7405858,6.15062762 23.8284519,8.0334728 C25.1046025,3.47280335 29.2887029,0.125523013 34.2468619,0.125523013 C39.665272,0.125523013 44.1841004,4.14225941 44.9372385,9.37238494 C47.6569038,7.34309623 51.2761506,7.53138075 53.9958159,10.083682 L53.7029289,9.83263598 C55.8786611,11.5899582 56.6317992,13.9748954 56.5271967,15.9832636 C56.4644351,17.1757322 56.0669456,18.2217573 55.3556485,19.0794979 C56.0460251,19.3096234 56.6108787,19.707113 57.1548117,20.251046 C57.9079498,21.0041841 58.4309623,21.9456067 58.5774059,22.9916318 C58.5774059,23.0334728 58.5774059,23.0753138 58.5983264,23.1380753 C58.5983264,23.0753138 58.5983264,23.0962343 58.5983264,23.1380753 Z M61.9665272,6.25523013 C60.376569,4.10041841 58.0125523,2.51046025 55.41841,1.84100418 C54.832636,1.71548117 54.2259414,2.11297071 54.1004184,2.67782427 C53.8702929,3.26359833 54.2468619,4.0167364 54.874477,4.14225941 C57.4895397,4.83263598 59.748954,6.67364017 60.9414226,9.10041841 C61.9246862,11.0878661 62.1757322,13.4309623 61.6317992,15.5857741 C61.4853556,16.1924686 61.9246862,16.8410042 62.5523013,16.9246862 C63.1171548,17.0920502 63.7447699,16.7573222 63.9330544,16.2133891 C64.790795,12.8451883 64.0585774,9.05857741 61.9665272,6.25523013 Z M54.4979079,5.92050209 C53.5983264,5.75313808 52.9079498,6.86192469 53.3054393,7.63598326 C53.4518828,7.9707113 53.7866109,8.20083682 54.1422594,8.28451883 C55.5020921,8.64016736 56.6945607,9.58158996 57.3221757,10.8368201 C57.8870293,11.9456067 58.0125523,13.2426778 57.6987448,14.4351464 C57.5313808,15.041841 57.9707113,15.7112971 58.5983264,15.8158996 C59.1631799,15.9832636 59.832636,15.6485356 60,15.0627615 C60.5857741,12.9288703 60.1464435,10.5439331 58.8493724,8.76569038 C57.8033473,7.34309623 56.2343096,6.25523013 54.4979079,5.92050209 Z" id="Shape" fill="#0071BC"></path>
            <g id="Group" transform="translate(0.000000, 33.472803)" fill="#363636">
                <polygon id="Shape" points="0.0209205021 0.313807531 5.81589958 0.313807531 5.81589958 1.9665272 3.84937238 1.9665272 3.84937238 8.55648536 1.9665272 8.55648536 1.9665272 1.9665272 -2.27373675e-13 1.9665272"></polygon>
                <path d="M8.78661088,8.57740586 L6.90376569,8.57740586 L6.90376569,0.313807531 L8.78661088,0.313807531 L8.78661088,3.61924686 L11.4435146,3.61924686 L11.4435146,0.313807531 L13.3263598,0.313807531 L13.3263598,8.57740586 L11.4435146,8.57740586 L11.4435146,5.25104603 L8.78661088,5.25104603 C8.78661088,5.25104603 8.78661088,8.57740586 8.78661088,8.57740586 Z" id="Shape"></path>
                <polygon id="Shape" points="19.6443515 1.9874477 16.8200837 1.9874477 16.8200837 3.61924686 19.539749 3.61924686 19.539749 5.27196653 16.8200837 5.27196653 16.8200837 6.92468619 19.665272 6.92468619 19.665272 8.57740586 14.916318 8.57740586 14.916318 0.313807531 19.6443515 0.313807531"></polygon>
                <polygon id="Shape" points="23.2635983 0.313807531 29.0585774 0.313807531 29.0585774 1.9665272 27.0920502 1.9665272 27.0920502 8.55648536 25.209205 8.55648536 25.209205 1.9665272 23.2426778 1.9665272"></polygon>
                <polygon id="Shape" points="32.0292887 8.57740586 30.1464435 8.57740586 30.1464435 0.313807531 32.0292887 0.313807531 32.0292887 3.61924686 34.6861925 3.61924686 34.6861925 0.313807531 36.5690377 0.313807531 36.5690377 8.57740586 34.6861925 8.57740586 34.6861925 5.25104603 32.0292887 5.25104603"></polygon>
                <polygon id="Shape" points="40.0627615 8.57740586 38.1799163 8.57740586 38.1799163 0.313807531 40.0627615 0.313807531"></polygon>
                <polygon id="Shape" points="43.5355649 8.57740586 41.6527197 8.57740586 41.6527197 0.313807531 43.5355649 0.313807531 46.7991632 5.41841004 46.8200837 5.41841004 46.8200837 0.313807531 48.7029289 0.313807531 48.7029289 8.57740586 46.8200837 8.57740586 43.5564854 3.47280335 43.5355649 3.47280335"></polygon>
                <path d="M57.7615063,5.73221757 C57.3012552,7.82426778 55.5648536,8.72384937 53.9539749,8.72384937 C51.7364017,8.72384937 49.9372385,6.79916318 49.9372385,4.45606695 C49.9372385,2.07112971 51.6527197,0.188284519 53.9539749,0.188284519 C55.41841,0.188284519 56.4016736,0.732217573 57.1338912,1.58995816 L55.8995816,2.94979079 C55.41841,2.17573222 54.790795,1.90376569 54.0585774,1.90376569 C52.9079498,1.90376569 51.9665272,3.05439331 51.9665272,4.47698745 C51.9665272,5.87866109 52.9079498,7.0083682 54.0585774,7.0083682 C54.958159,7.0083682 55.8577406,6.42259414 55.8577406,5.41841004 L53.9748954,5.41841004 L53.9748954,3.9539749 L57.7824268,3.9539749 L57.7824268,5.73221757 L57.7615063,5.73221757 Z" id="Shape"></path>
                <path d="M64.4142259,0.962343096 L63.6401674,2.46861925 C63.6401674,2.46861925 62.8242678,1.90376569 61.9874477,1.90376569 C61.3389121,1.90376569 61.0251046,2.17573222 61.0251046,2.63598326 C61.0251046,3.09623431 61.8200837,3.43096234 62.7405858,3.82845188 C63.6610879,4.20502092 64.6861925,5 64.6861925,6.08786611 C64.6861925,8.05439331 63.1799163,8.74476987 61.5690377,8.74476987 C59.623431,8.74476987 58.4728033,7.63598326 58.4728033,7.63598326 L59.4142259,6.0460251 C59.4142259,6.0460251 60.5230126,6.9665272 61.4435146,6.9665272 C61.8619247,6.9665272 62.6359833,6.92468619 62.6359833,6.15062762 C62.6359833,5.56485356 61.7573222,5.27196653 60.7740586,4.79079498 C59.7698745,4.30962343 59.2050209,3.53556485 59.2050209,2.67782427 C59.2050209,1.15062762 60.5648536,0.146443515 61.8828452,0.146443515 C63.3472803,0.167364017 64.4142259,0.962343096 64.4142259,0.962343096 Z" id="Shape"></path>
            </g>
        </g>
    </g>
</svg>
